<svg version="1.1" xmlns="http://www.w3.org/2000/svg" width="498.519px" height="841.89px" viewBox="0 0 498.519 841.89" enable-background="new 0 0 498.519 841.89" xml:space="preserve">
  <g>
    <polygon fill="#547DBF" points="0.572,225.452 0.572,423.847 374.517,99.17 245,0"/>
    <polygon fill="#547DBF" points="0.572,422.553 244.997,625.1 244,422.553 120.237,319.493"/>
	<polygon fill="#FFFFFF" opacity="0.2" points="0,225.021 0.572,426.71 20.039,388.2 20.275,234.946 111.648,151.747 105,128"/>
	<polygon fill="#000000" opacity="0.2" points="0,425.416 120,319 148.864,343"/>
  </g>
  
  <g>
    <polygon fill="#F15A29" points="120,748.037 244,842.635 498.516,606.52 498,408.309"/>
    <polygon fill="#F15A29" points="245,417.409 498.519,606.559 498,408.309 244,219.159"/>
    <polygon fill="#FFFFFF" opacity="0.2" points="245,417.409 266.327,410.054 266,262 471.701,415.667 497,408.309 245,219.159"/>
	<polygon fill="#000000" opacity="0.2" points="498.519,606.559 378,517 347,544"/>
  </g>
</svg>
